<svg id="Group_500" data-name="Group 500" xmlns="http://www.w3.org/2000/svg" xmlns:xlink="http://www.w3.org/1999/xlink" width="197.067" height="56.729" viewBox="0 0 197.067 56.729">
  <defs>
    <clipPath id="clip-path">
      <rect id="Rectangle_251" data-name="Rectangle 251" width="197.067" height="56.729" fill="none"/>
    </clipPath>
  </defs>
  <g id="Group_498" data-name="Group 498" clip-path="url(#clip-path)">
    <path id="Path_257" data-name="Path 257" d="M67.407,24.584A6.278,6.278,0,0,0,62.7,18.015a10.059,10.059,0,0,0-5.383.375,24.294,24.294,0,0,0-8.079,4.661c-.587.482-1.155.988-1.808,1.546.2-1.937.4-3.766.593-5.652l-7-.19c.058-.249.1-.433.146-.618.432-1.715.921-3.416,1.283-5.146a19.936,19.936,0,0,0,.318-7.031A6.6,6.6,0,0,0,35.054.092a20.341,20.341,0,0,0-7.378,2.919A47.981,47.981,0,0,0,15.375,14a32.448,32.448,0,0,0-5.493,9.164c-.135.365-.369.376-.668.372-1.707-.022-3.415-.026-5.121-.061a.74.74,0,0,0-.771.439c-.986,1.822-2,3.629-3,5.442C.23,29.515.154,29.686,0,30H8c0,.529.005.936,0,1.343-.033,2.028-.16,4.06-.08,6.083.068,1.727.373,3.443.565,5.164.049.437.274.594.693.661,1.516.242,3.026.533,4.538.8.721.127,1.446.233,2.269.365a45.394,45.394,0,0,1-.711-14.364H29.037l-4.63,9.093c2.658,0,5.16.008,7.663-.017.157,0,.374-.225.457-.4.665-1.379,1.34-2.754,1.947-4.16q2.733-6.328,5.41-12.68c.386-.916.676-1.875,1.011-2.813a.289.289,0,0,1,.122.232,40.79,40.79,0,0,1-.635,9.374A58.824,58.824,0,0,1,36,41.864c-2.138,4.713-4.388,9.373-6.589,14.056-.111.234-.22.472-.375.81,2.329-.458,4.54-.887,6.746-1.34a.657.657,0,0,0,.364-.379c.474-1.19.91-2.4,1.385-3.584a68.61,68.61,0,0,1,7.547-14.5A52.86,52.86,0,0,1,54.83,26.12a11.448,11.448,0,0,1,4.239-2.429c1.486-.379,2.413.647,1.92,2.157a5,5,0,0,1-.851,1.568,19.045,19.045,0,0,1-6.51,4.9A12.2,12.2,0,0,1,48.788,33.9c-.151.007-.337.223-.429.389-.74,1.339-1.465,2.687-2.188,4.034-.124.233-.221.481-.353.769a2.583,2.583,0,0,0,.326.05q7.484,0,14.969-.017a.83.83,0,0,0,.561-.29c1.253-1.515,2.486-3.045,3.72-4.576a3.358,3.358,0,0,0,.235-.421H61.5c.893-.826,1.761-1.552,2.544-2.366a10.7,10.7,0,0,0,3.363-6.89M35.84,10.439a32.243,32.243,0,0,1-1.83,7.46c-.587,1.748-1.257,3.468-1.884,5.2-.1.271-.2.46-.547.457Q24.438,23.5,17.3,23.47c-.075,0-.148-.022-.389-.06.6-1.072,1.114-2.088,1.721-3.042A33.1,33.1,0,0,1,29.222,9.708,17.427,17.427,0,0,1,33.048,7.97c2.122-.673,2.993.167,2.792,2.469" transform="translate(0 0)" fill="#d0031f"/>
    <path id="Path_258" data-name="Path 258" d="M282.84,85.866c.137-.086.279-.167.415-.257,1.585-1.062,3.233-2.039,4.737-3.212a13.879,13.879,0,0,0,4.638-6.164c.9-2.451.171-4.713-1.933-5.731a8.267,8.267,0,0,0-2.822-.794,13.74,13.74,0,0,0-9.747,3,19.172,19.172,0,0,0-6.568,10.272,6.964,6.964,0,0,0,.171,4.871,5.073,5.073,0,0,0,4.283,3.323c3.594.23,7.206.154,10.809.218a.653.653,0,0,0,.7-.435c.707-1.509,1.443-3,2.163-4.509a3.96,3.96,0,0,0,.152-.49h-6.978c-.007-.032-.015-.064-.022-.1m3.659-10.1a2.844,2.844,0,0,1-.392.751,33.1,33.1,0,0,1-2.724,2.536,29.639,29.639,0,0,1-5.645,3.248c.49-3,5.975-7.136,8.761-6.535" transform="translate(-202.831 -52.095)" fill="#d0031f"/>
    <path id="Path_259" data-name="Path 259" d="M373.818,68.422a9.957,9.957,0,0,0-7.049.621,23.208,23.208,0,0,0-8.841,6.795,17.676,17.676,0,0,0-3.781,6.86,5.894,5.894,0,0,0,.333,4.541A5.585,5.585,0,0,0,359.528,90c3.373.114,6.753.005,10.129-.039a.9.9,0,0,0,.639-.416c.638-1.129,1.231-2.284,1.836-3.43.212-.4.419-.805.668-1.283-.319-.025-.54-.051-.762-.056-2.977-.058-5.956-.108-8.933-.176a7.6,7.6,0,0,1-1.407-.176c-1.2-.255-1.4-.6-1.068-1.793a9.8,9.8,0,0,1,2.129-3.692,13.28,13.28,0,0,1,6.315-4.484c.758-.225,1.176.093,1.069.9a7.477,7.477,0,0,1-.483,1.731c-.253.64-.594,1.246-.9,1.864.072.043.1.076.133.078,1.328.049,2.654.1,3.981.138.622.018,1.407.251,1.82-.047s.492-1.135.674-1.747A17.754,17.754,0,0,0,376.416,72a3.367,3.367,0,0,0-2.6-3.576" transform="translate(-264.643 -50.876)" fill="#d0031f"/>
    <path id="Path_260" data-name="Path 260" d="M462.677,74.49a16.9,16.9,0,0,1-7.977-1.718,10.819,10.819,0,0,1-4.774-4.751,12.2,12.2,0,0,1-1.033-7.093,21.093,21.093,0,0,1,2.307-7.405,20.691,20.691,0,0,1,4.717-5.955,21.828,21.828,0,0,1,6.659-3.948,23.021,23.021,0,0,1,8.226-1.428,18.276,18.276,0,0,1,7.591,1.405,11.144,11.144,0,0,1,4.817,4.037l-5.78,4.238a7.056,7.056,0,0,0-3.187-2.766,11.548,11.548,0,0,0-4.5-.8,13.271,13.271,0,0,0-9.2,3.524,13.183,13.183,0,0,0-2.879,3.859,14.712,14.712,0,0,0-1.409,4.8,7.534,7.534,0,0,0,.523,4.127,5.882,5.882,0,0,0,2.719,2.766,10.369,10.369,0,0,0,4.852,1,12.465,12.465,0,0,0,4.378-.781A17.252,17.252,0,0,0,473,65.211l2.1,5.487a20.14,20.14,0,0,1-5.807,2.811,22.563,22.563,0,0,1-6.61.981m6.218-4.907,3.748-11.733h6.6L475.094,70.7Z" transform="translate(-335.632 -31.555)" fill="#454545"/>
    <path id="Path_261" data-name="Path 261" d="M578.581,96.28a9.706,9.706,0,0,1-4.931-1.271,8.237,8.237,0,0,1-3.366-3.68,10.247,10.247,0,0,1-.749-5.755,16.178,16.178,0,0,1,1.71-5.621,15.928,15.928,0,0,1,3.393-4.416,15.655,15.655,0,0,1,4.594-2.922,13.751,13.751,0,0,1,5.3-1.048,10.043,10.043,0,0,1,4.972,1.115,5.976,5.976,0,0,1,2.768,3.457,12.074,12.074,0,0,1,.067,6.045,22.154,22.154,0,0,1-2.692,7.45,14.4,14.4,0,0,1-4.679,4.907,11.787,11.787,0,0,1-6.39,1.74m2.886-5.754a7.386,7.386,0,0,0,3.755-.982,8.172,8.172,0,0,0,2.835-2.766,9.861,9.861,0,0,0,1.419-4.149,4.765,4.765,0,0,0-.958-3.859,4.861,4.861,0,0,0-3.883-1.45,7.191,7.191,0,0,0-3.713,1,8.611,8.611,0,0,0-2.857,2.766,9.538,9.538,0,0,0-1.439,4.126A4.7,4.7,0,0,0,577.6,89.1a4.916,4.916,0,0,0,3.863,1.428m4.116,5.4L587.1,91.15l2.43-7.137,1.806-7.138,1.584-4.952h6.914l-7.65,24Z" transform="translate(-425.871 -53.524)" fill="#454545"/>
    <path id="Path_262" data-name="Path 262" d="M667.808,96.982l1.363-4.238,19.211-16.729.878,2.32H674.182l1.722-5.353h20.61L695.2,77.219,675.989,93.9l-.928-2.275h15.881l-1.722,5.353Z" transform="translate(-499.448 -54.582)" fill="#454545"/>
  </g>
</svg>
