<svg xmlns="http://www.w3.org/2000/svg" xmlns:xlink="http://www.w3.org/1999/xlink" width="186.15" height="94.48" viewBox="0 0 186.15 94.48">
  <defs>
    <clipPath id="clip-path">
      <rect id="Rectangle_601" data-name="Rectangle 601" width="186.153" height="94.478" fill="none"/>
    </clipPath>
    <clipPath id="clip-apec_logo_svg">
      <rect width="186.15" height="94.48"/>
    </clipPath>
  </defs>
  <g id="apec_logo_svg" data-name="apec logo svg" clip-path="url(#clip-apec_logo_svg)">
    <g id="Group_894" data-name="Group 894">
      <g id="Group_892" data-name="Group 892" clip-path="url(#clip-path)">
        <path id="Path_496" data-name="Path 496" d="M112.261,40.942A10.456,10.456,0,0,0,104.421,30a16.751,16.751,0,0,0-8.964.625A40.464,40.464,0,0,0,82,38.391c-.979.8-1.924,1.644-3.011,2.574.34-3.226.659-6.272.987-9.412-3.957-.109-7.768-.211-11.66-.317.1-.414.164-.721.243-1.029.719-2.856,1.533-5.689,2.137-8.571a33.209,33.209,0,0,0,.53-11.709C70.247,3.262,64.811-.864,58.381.154A33.865,33.865,0,0,0,46.093,5.015a79.9,79.9,0,0,0-20.487,18.3,54.026,54.026,0,0,0-9.149,15.261c-.225.608-.615.627-1.113.62-2.842-.037-5.687-.044-8.529-.1a1.233,1.233,0,0,0-1.284.73c-1.641,3.034-3.33,6.043-5,9.064-.151.271-.278.555-.534,1.076H13.319c0,.881.009,1.558,0,2.236-.056,3.379-.266,6.762-.134,10.131.114,2.877.622,5.734.941,8.6.081.728.456.99,1.154,1.1,2.525.4,5.039.888,7.558,1.327,1.2.211,2.407.389,3.779.608-1.506-8.008-2.228-15.915-1.185-23.922H48.36c-2.581,5.069-5.108,10.033-7.711,15.143,4.427,0,8.594.014,12.762-.028.261,0,.622-.375.76-.664,1.108-2.3,2.232-4.586,3.243-6.928q4.551-10.54,9.01-21.118c.643-1.526,1.126-3.122,1.684-4.685a.482.482,0,0,1,.2.386,67.94,67.94,0,0,1-1.057,15.612,97.948,97.948,0,0,1-7.3,21.959c-3.561,7.85-7.308,15.611-10.973,23.409-.185.391-.366.786-.625,1.348,3.878-.763,7.56-1.477,11.234-2.231a1.1,1.1,0,0,0,.607-.632c.789-1.982,1.515-3.989,2.306-5.969,3.389-8.49,7.278-16.7,12.569-24.146,4.732-6.656,9.9-12.893,16.245-18a19.057,19.057,0,0,1,7.06-4.045c2.474-.632,4.02,1.077,3.2,3.591a8.323,8.323,0,0,1-1.418,2.611,31.715,31.715,0,0,1-10.842,8.161c-2.55,1.279-5.14,2.5-8.062,2.641-.252.011-.562.372-.715.647-1.233,2.23-2.44,4.475-3.645,6.718-.206.389-.368.8-.587,1.281a4.221,4.221,0,0,0,.543.084q12.465,0,24.931-.028a1.384,1.384,0,0,0,.934-.483c2.086-2.523,4.14-5.072,6.2-7.62a5.684,5.684,0,0,0,.391-.7h-6.878c1.487-1.376,2.933-2.585,4.237-3.94,3.071-3.186,5.317-6.809,5.6-11.475M59.69,17.386a53.721,53.721,0,0,1-3.048,12.424c-.978,2.911-2.093,5.775-3.138,8.663-.162.451-.326.766-.911.761Q40.7,39.14,28.809,39.088c-.125,0-.247-.038-.648-.1,1-1.786,1.855-3.478,2.866-5.067A55.136,55.136,0,0,1,48.668,16.167a29,29,0,0,1,6.372-2.893c3.534-1.121,4.984.278,4.651,4.112" transform="translate(0 0)" fill="#fff"/>
        <path id="Path_497" data-name="Path 497" d="M200.742,73.578c.229-.144.465-.278.691-.428,2.638-1.769,5.384-3.395,7.888-5.349a23.115,23.115,0,0,0,7.724-10.266c1.5-4.082.284-7.85-3.219-9.545a13.753,13.753,0,0,0-4.7-1.322,22.881,22.881,0,0,0-16.233,5c-5.65,4.315-8.948,10.31-10.939,17.107a11.6,11.6,0,0,0,.284,8.113c1.4,3.147,3.839,5.323,7.133,5.534,5.985.384,12,.257,18,.363a1.088,1.088,0,0,0,1.17-.724c1.177-2.513,2.4-5,3.6-7.509a6.506,6.506,0,0,0,.252-.816h-11.62c-.012-.053-.026-.106-.037-.159m6.093-16.825A4.759,4.759,0,0,1,206.184,58a55.307,55.307,0,0,1-4.538,4.223,49.375,49.375,0,0,1-9.4,5.409c.817-5,9.952-11.885,14.591-10.883" transform="translate(-67.492 -17.335)" fill="#fff"/>
        <path id="Path_498" data-name="Path 498" d="M269.883,46.15c-4.047-1.29-7.947-.55-11.739,1.034A38.659,38.659,0,0,0,243.418,58.5a29.435,29.435,0,0,0-6.3,11.425c-.673,2.579-.8,5.157.555,7.562,1.857,3.312,5.014,4.478,8.406,4.593,5.617.189,11.246.009,16.869-.065a1.5,1.5,0,0,0,1.063-.694c1.062-1.88,2.05-3.8,3.058-5.712.354-.669.7-1.342,1.113-2.137-.532-.041-.9-.085-1.27-.093-4.958-.1-9.919-.18-14.878-.294a12.643,12.643,0,0,1-2.342-.293c-1.994-.426-2.329-1-1.779-2.985a16.311,16.311,0,0,1,3.546-6.149c2.886-3.4,6.2-6.2,10.518-7.468,1.263-.374,1.958.155,1.781,1.492a12.47,12.47,0,0,1-.8,2.884c-.421,1.066-.99,2.074-1.494,3.1.12.072.171.127.222.129,2.211.082,4.42.165,6.63.229,1.036.03,2.343.419,3.032-.078s.819-1.89,1.122-2.909c.867-2.917,1.794-5.828,1.741-8.934-.053-3.2-1.371-5.012-4.327-5.956" transform="translate(-88.059 -16.929)" fill="#fff"/>
      </g>
    </g>
  </g>
</svg>