<svg xmlns="http://www.w3.org/2000/svg" xmlns:xlink="http://www.w3.org/1999/xlink" width="184.122" height="44.907" viewBox="0 0 184.122 44.907">
  <defs>
    <clipPath id="clip-path">
      <rect id="Rectangle_252" data-name="Rectangle 252" width="184.122" height="44.907" transform="translate(0 0)" fill="none"/>
    </clipPath>
  </defs>
  <g id="Group_504" data-name="Group 504" transform="translate(0 0)">
    <path id="Path_263" data-name="Path 263" d="M144.4.932V10.2h23.972v.336L144.4,35.043v9.323h39.221V35.1H159.651v-.336L183.622,10.2V.932Z" fill="#0060ad"/>
    <g id="Group_503" data-name="Group 503">
      <g id="Group_502" data-name="Group 502" clip-path="url(#clip-path)">
        <path id="Path_264" data-name="Path 264" d="M183.622,44.366H144.4V35.043l23.972-24.508V10.2H144.4V.932h39.221V10.2L159.651,34.764V35.1h23.971Z" fill="none" stroke="#fff" stroke-miterlimit="10" stroke-width="1"/>
        <path id="Path_265" data-name="Path 265" d="M47.989,20.331h10.8q5.287,0,5.289-5.243,0-5.187-5.289-5.188h-10.8Zm0,24.076h-10.8V.541H62.9a15.382,15.382,0,0,1,5.316.874A10.627,10.627,0,0,1,72.32,4.093a12.151,12.151,0,0,1,2.644,4.539,20.13,20.13,0,0,1,.928,6.456,20.115,20.115,0,0,1-.928,6.455,12.135,12.135,0,0,1-2.644,4.539,10.878,10.878,0,0,1-4.107,2.707,14.966,14.966,0,0,1-5.316.9H47.989Z" fill="#da001a"/>
        <path id="Path_266" data-name="Path 266" d="M47.989,20.331h10.8q5.287,0,5.289-5.243,0-5.187-5.289-5.188h-10.8Zm0,24.076h-10.8V.541H62.9a15.382,15.382,0,0,1,5.316.874A10.627,10.627,0,0,1,72.32,4.093a12.151,12.151,0,0,1,2.644,4.539,20.13,20.13,0,0,1,.928,6.456,20.115,20.115,0,0,1-.928,6.455,12.135,12.135,0,0,1-2.644,4.539,10.878,10.878,0,0,1-4.107,2.707,14.966,14.966,0,0,1-5.316.9H47.989Z" fill="none" stroke="#fff" stroke-miterlimit="10" stroke-width="1"/>
        <path id="Path_267" data-name="Path 267" d="M19.167,26.534h9.18l-4.59-11.615ZM19.111.541H28.4L46.762,44.407H35.4l-3.7-9.416h-15.9l-3.694,9.416H.751Z" fill="#da001a"/>
        <path id="Path_268" data-name="Path 268" d="M19.167,26.534h9.18l-4.59-11.615ZM19.111.541H28.4L46.762,44.407H35.4l-3.7-9.416h-15.9l-3.694,9.416H.751Z" fill="none" stroke="#fff" stroke-miterlimit="10" stroke-width="1"/>
        <path id="Path_269" data-name="Path 269" d="M106.874,26.944H97.243V17.923h20.445V44.366H94.539q-8.9,0-13.518-5.638T76.4,22.433q0-10.656,4.618-16.3T94.539.5h23.149V9.86H97.243q-4.732,0-6.9,3.3t-2.168,9.275q0,5.977,2.168,9.275t6.9,3.3h9.631Z" fill="#0060ad"/>
        <path id="Path_270" data-name="Path 270" d="M106.874,26.944H97.243V17.923h20.445V44.366H94.539q-8.9,0-13.518-5.638T76.4,22.433q0-10.656,4.618-16.3T94.539.5h23.149V9.86H97.243q-4.732,0-6.9,3.3t-2.168,9.275q0,5.977,2.168,9.275t6.9,3.3h9.631Z" fill="none" stroke="#fff" stroke-miterlimit="10" stroke-width="1"/>
        <path id="Path_271" data-name="Path 271" d="M138.028,26.8a13.968,13.968,0,0,1-1.753,1.909c-.69.656-1.377,1.318-2.027,2.015a7.726,7.726,0,0,0-.712,1.066c-.046.07-.094.14-.14.209l-.073-.006a3.227,3.227,0,0,1-.07-.422,6.17,6.17,0,0,1,1.6-4.427c.474-.535.934-1.084,1.392-1.634a7.719,7.719,0,0,0,1.612-3.578,4.552,4.552,0,0,0-.035-2.309c-.029-.09-.065-.178-.1-.272a7.416,7.416,0,0,1,1.39,2.912,5.99,5.99,0,0,1-1.084,4.537m-6.072,2.014a3.9,3.9,0,0,1-.838-2.034,3,3,0,0,1,.393-1.789,27.029,27.029,0,0,1,1.944-3.027,16.019,16.019,0,0,0,1.652-2.6,5.6,5.6,0,0,0,.66-2.573,8.267,8.267,0,0,0-.152-1.041l.018-.018c.222.488.471.966.659,1.466a5.287,5.287,0,0,1-.444,4.72,27.706,27.706,0,0,1-2.422,3.442,6.04,6.04,0,0,0-1.1,1.945,2.617,2.617,0,0,0-.139,1.409c.04.167.12.325.151.514-.127-.136-.265-.263-.378-.41m-.587,2.867a1.935,1.935,0,0,1-.286-.06,11.089,11.089,0,0,1-5.123-3.524,5.236,5.236,0,0,1-1.151-2.884,1.11,1.11,0,0,0-.039-.178v-.492c.06-.356.1-.716.183-1.067a7.567,7.567,0,0,1,.913-2.158c1.218-2.061,2.447-4.115,3.656-6.181a17.959,17.959,0,0,0,1.6-3.357,4.907,4.907,0,0,0,.3-2.312,3.8,3.8,0,0,0-.454-1.271c.047.058.1.114.143.173a22.85,22.85,0,0,1,2.718,4.344,6.488,6.488,0,0,1,.652,2.2,3.36,3.36,0,0,1-.278,1.455,12.406,12.406,0,0,1-1.487,2.652c-.718,1.045-1.452,2.08-2.14,3.144a11.846,11.846,0,0,0-1.419,3.1,5.116,5.116,0,0,0,.387,3.8,9.229,9.229,0,0,0,1.45,2.071c.143.16.274.331.41.5l-.035.048M136.624.5h-9.292l-18.36,43.866h11.363l3.695-9.416h15.9l3.694,9.416h11.363Z" fill="#0060ad"/>
        <path id="Path_272" data-name="Path 272" d="M138.028,26.8a13.968,13.968,0,0,1-1.753,1.909c-.69.656-1.377,1.318-2.027,2.015a7.726,7.726,0,0,0-.712,1.066c-.046.07-.094.14-.14.209l-.073-.006a3.227,3.227,0,0,1-.07-.422,6.17,6.17,0,0,1,1.6-4.427c.474-.535.934-1.084,1.392-1.634a7.719,7.719,0,0,0,1.612-3.578,4.552,4.552,0,0,0-.035-2.309c-.029-.09-.065-.178-.1-.272a7.416,7.416,0,0,1,1.39,2.912A5.99,5.99,0,0,1,138.028,26.8Zm-6.072,2.014a3.9,3.9,0,0,1-.838-2.034,3,3,0,0,1,.393-1.789,27.029,27.029,0,0,1,1.944-3.027,16.019,16.019,0,0,0,1.652-2.6,5.6,5.6,0,0,0,.66-2.573,8.267,8.267,0,0,0-.152-1.041l.018-.018c.222.488.471.966.659,1.466a5.287,5.287,0,0,1-.444,4.72,27.706,27.706,0,0,1-2.422,3.442,6.04,6.04,0,0,0-1.1,1.945,2.617,2.617,0,0,0-.139,1.409c.04.167.12.325.151.514C132.207,29.086,132.069,28.959,131.956,28.812Zm-.587,2.867a1.935,1.935,0,0,1-.286-.06,11.089,11.089,0,0,1-5.123-3.524,5.236,5.236,0,0,1-1.151-2.884,1.11,1.11,0,0,0-.039-.178v-.492c.06-.356.1-.716.183-1.067a7.567,7.567,0,0,1,.913-2.158c1.218-2.061,2.447-4.115,3.656-6.181a17.959,17.959,0,0,0,1.6-3.357,4.907,4.907,0,0,0,.3-2.312,3.8,3.8,0,0,0-.454-1.271c.047.058.1.114.143.173a22.85,22.85,0,0,1,2.718,4.344,6.488,6.488,0,0,1,.652,2.2,3.36,3.36,0,0,1-.278,1.455,12.406,12.406,0,0,1-1.487,2.652c-.718,1.045-1.452,2.08-2.14,3.144a11.846,11.846,0,0,0-1.419,3.1,5.116,5.116,0,0,0,.387,3.8,9.229,9.229,0,0,0,1.45,2.071c.143.16.274.331.41.5ZM136.624.5h-9.292l-18.36,43.866h11.363l3.695-9.416h15.9l3.694,9.416h11.363Z" fill="none" stroke="#fff" stroke-miterlimit="10" stroke-width="1"/>
      </g>
    </g>
  </g>
</svg>
